<svg width="23" height="24" viewBox="0 0 23 24" fill="none" xmlns="http://www.w3.org/2000/svg">
<g id="basket">
<path id="Union" fill-rule="evenodd" clip-rule="evenodd" d="M5.69817 7.50037L10.0968 3.28504C11.1605 2.26566 12.8385 2.26566 13.9022 3.28504L18.3008 7.50037H20.8465C21.4551 7.50037 21.9225 8.03935 21.8365 8.64179L20.3675 18.9246C20.1563 20.4026 18.8906 21.5004 17.3976 21.5004H6.60141C5.10846 21.5004 3.8427 20.4026 3.63156 18.9246L2.16258 8.64179C2.07652 8.03935 2.54398 7.50037 3.15253 7.50037H5.69817ZM11.1346 4.36802C11.6181 3.90467 12.3809 3.90467 12.8644 4.36802L16.1329 7.50037H7.86609L11.1346 4.36802ZM3.72904 9.00037L5.11648 18.7125C5.22205 19.4515 5.85493 20.0004 6.60141 20.0004H17.3976C18.1441 20.0004 18.777 19.4515 18.8826 18.7125L20.27 9.00037H3.72904Z" fill="#8D867F"/>
<path id="Vector 606 (Stroke)" fill-rule="evenodd" clip-rule="evenodd" d="M8 11.75C8.41421 11.75 8.75 12.0858 8.75 12.5V16.5C8.75 16.9142 8.41421 17.25 8 17.25C7.58579 17.25 7.25 16.9142 7.25 16.5V12.5C7.25 12.0858 7.58579 11.75 8 11.75Z" fill="#8D867F"/>
<path id="Vector 607 (Stroke)" fill-rule="evenodd" clip-rule="evenodd" d="M12 11.75C12.4142 11.75 12.75 12.0858 12.75 12.5V16.5C12.75 16.9142 12.4142 17.25 12 17.25C11.5858 17.25 11.25 16.9142 11.25 16.5V12.5C11.25 12.0858 11.5858 11.75 12 11.75Z" fill="#8D867F"/>
<path id="Vector 608 (Stroke)" fill-rule="evenodd" clip-rule="evenodd" d="M16 11.75C16.4142 11.75 16.75 12.0858 16.75 12.5V16.5C16.75 16.9142 16.4142 17.25 16 17.25C15.5858 17.25 15.25 16.9142 15.25 16.5V12.5C15.25 12.0858 15.5858 11.75 16 11.75Z" fill="#8D867F"/>
</g>
</svg>
