<svg xmlns="http://www.w3.org/2000/svg" width="17" height="20" viewBox="0 0 17 20" fill="none">
  <path d="M12.7916 6.96187L9.90685 10.0005L12.792 13.0381L16.3347 10.9189C16.818 10.6293 17 10.2861 17 9.99976C17 9.71348 16.8181 9.37049 16.3349 9.08135L12.7916 6.96187Z" fill="#484848"/>
  <path d="M9.18256 9.99976L0.130387 0.469323C0.050182 0.646069 0 0.878344 0 1.17015V18.8298C0 19.1222 0.050186 19.3543 0.130417 19.5309L9.18256 9.99976Z" fill="#484848"/>
  <path d="M1.54233 0.233388L12.2606 6.64507L9.54714 9.50188L0.563356 0.042673C0.808497 -0.0437826 1.13919 -0.00780021 1.54233 0.233388Z" fill="#484848"/>
  <path d="M0.562695 19.9572C0.807823 20.0438 1.1387 20.0079 1.54231 19.7669L12.2603 13.3546L9.54779 10.4974L8.5459 11.5523L0.562695 19.9572Z" fill="#484848"/>
</svg>