<svg width="21" height="18" viewBox="0 0 21 18" fill="none" xmlns="http://www.w3.org/2000/svg">
<g id="Icon">
<path d="M1.90909 0C0.854729 0 0 0.826551 0 1.84615V12.9231C0 13.9427 0.854729 14.7692 1.90909 14.7692H19.0909C20.1453 14.7692 21 13.9427 21 12.9231V1.84615C21 0.826551 20.1453 0 19.0909 0H1.90909Z" fill="#484848"/>
<path d="M5.72727 17.3077C5.72727 16.9253 6.05602 16.6154 6.46154 16.6154H14.5385C14.944 16.6154 15.2727 16.9253 15.2727 17.3077C15.2727 17.69 14.944 18 14.5385 18H6.46154C6.05601 18 5.72727 17.69 5.72727 17.3077Z" fill="#484848"/>
</g>
</svg>
