<svg width="159" height="20" viewBox="0 0 159 20" fill="none" xmlns="http://www.w3.org/2000/svg">
<g id="Social media icon">
<g id="Icon">
<path d="M148.983 13.3292C148.325 13.3292 147.681 13.1339 147.133 12.768C146.586 12.4021 146.159 11.882 145.907 11.2735C145.655 10.665 145.589 9.99549 145.717 9.34953C145.846 8.70357 146.163 8.11022 146.629 7.64451C147.094 7.17881 147.688 6.86165 148.334 6.73316C148.98 6.60468 149.649 6.67062 150.258 6.92266C150.866 7.1747 151.386 7.60152 151.752 8.14913C152.118 8.69675 152.313 9.34057 152.313 9.99918C152.313 10.4365 152.227 10.8695 152.06 11.2735C151.892 11.6775 151.647 12.0446 151.338 12.3538C151.029 12.6631 150.662 12.9084 150.258 13.0757C149.854 13.243 149.421 13.3292 148.983 13.3292Z" fill="#484848"/>
<path fill-rule="evenodd" clip-rule="evenodd" d="M158.48 3.45C158.765 4.2294 158.921 5.0503 158.94 5.88C159 6.94 159 7.28 159 10C159 11.6746 158.977 12.4471 158.96 13.0409C158.949 13.4116 158.94 13.7126 158.94 14.12C158.921 14.9497 158.765 15.7706 158.48 16.55C158.228 17.2182 157.832 17.8226 157.32 18.32C156.825 18.8326 156.22 19.2258 155.55 19.47C154.773 19.7638 153.951 19.9228 153.12 19.94C152.06 20 151.72 20 149 20C146.28 20 145.94 20 144.88 19.94C144.049 19.9228 143.227 19.7638 142.45 19.47C141.782 19.2234 141.177 18.8304 140.68 18.32C140.167 17.8248 139.774 17.2196 139.53 16.55C139.236 15.7727 139.077 14.9509 139.06 14.12C139 13.06 139 12.72 139 10C139 7.28 139 6.94 139.06 5.88C139.077 5.04915 139.236 4.22734 139.53 3.45C139.774 2.78044 140.167 2.17518 140.68 1.68C141.177 1.16956 141.782 0.776648 142.45 0.53C143.227 0.236161 144.049 0.0772105 144.88 0.0600004C145.94 0 146.28 0 149 0C151.72 0 152.06 0 153.12 0.0600004C153.951 0.0772105 154.773 0.236161 155.55 0.53C156.22 0.774176 156.825 1.16743 157.32 1.68C157.83 2.17928 158.226 2.78313 158.48 3.45ZM154.325 3.45898C154.088 3.45898 153.856 3.52936 153.658 3.66122C153.461 3.79308 153.307 3.98049 153.216 4.19976C153.126 4.41904 153.102 4.66032 153.148 4.89309C153.194 5.12587 153.309 5.33969 153.476 5.50751C153.644 5.67534 153.858 5.78962 154.091 5.83593C154.324 5.88223 154.565 5.85846 154.784 5.76764C155.003 5.67681 155.191 5.52301 155.323 5.32567C155.455 5.12833 155.525 4.89632 155.525 4.65898C155.525 4.34072 155.399 4.0355 155.174 3.81046C154.948 3.58541 154.643 3.45898 154.325 3.45898ZM148.983 4.86918C147.969 4.87116 146.978 5.17371 146.136 5.7386C145.294 6.30349 144.638 7.10538 144.251 8.04293C143.864 8.98049 143.764 10.0116 143.963 11.0061C144.162 12.0006 144.652 12.9137 145.369 13.6302C146.087 14.3466 147.001 14.8342 147.996 15.0313C148.991 15.2285 150.022 15.1263 150.959 14.7377C151.896 14.3491 152.696 13.6916 153.259 12.8482C153.823 12.0048 154.123 11.0134 154.123 9.99918C154.125 9.32428 153.992 8.65579 153.735 8.03214C153.477 7.40849 153.098 6.84199 152.62 6.36523C152.142 5.88847 151.575 5.51086 150.951 5.25411C150.327 4.99736 149.658 4.86654 148.983 4.86918Z" fill="#484848"/>
</g>
<path id="Icon_2" d="M109 3.89517C108.248 4.21825 107.452 4.43298 106.637 4.53275C107.496 4.0313 108.138 3.23727 108.441 2.30111C107.638 2.77031 106.759 3.10076 105.842 3.27818C105.28 2.6868 104.55 2.27563 103.747 2.09812C102.944 1.92061 102.106 1.98498 101.341 2.28285C100.576 2.58072 99.9195 3.09832 99.4572 3.76835C98.9949 4.43838 98.7481 5.22984 98.7488 6.03983C98.7456 6.34892 98.7775 6.65739 98.8438 6.95952C97.2127 6.88078 95.6168 6.464 94.1604 5.7364C92.7041 5.00881 91.4201 3.98679 90.3925 2.73716C89.8648 3.62518 89.7013 4.67797 89.9353 5.68064C90.1693 6.68331 90.7831 7.56026 91.6515 8.13252C91.0027 8.11526 90.3677 7.94472 89.7999 7.63529V7.67927C89.801 8.61148 90.1282 9.51487 90.7265 10.2374C91.3249 10.9599 92.1577 11.4574 93.085 11.6461C92.7342 11.7371 92.3727 11.7819 92.0099 11.7791C91.7494 11.7836 91.4892 11.7605 91.2338 11.7101C91.4988 12.5113 92.0095 13.2119 92.6956 13.7155C93.3818 14.2191 94.2096 14.5009 95.0651 14.5221C93.6138 15.6396 91.8239 16.2458 89.9814 16.2439C89.6534 16.2461 89.3256 16.2275 89 16.1884C90.8748 17.3778 93.0595 18.007 95.2899 17.9999C102.835 17.9999 106.96 11.8466 106.96 6.51287C106.96 6.33433 106.954 6.16219 106.945 5.99105C107.754 5.42123 108.45 4.71098 109 3.89517Z" fill="#484848"/>
<path id="Icon_3" fill-rule="evenodd" clip-rule="evenodd" d="M51.2014 10.0762V19.7388C51.2014 19.8694 51.3185 20 51.4824 20H55.3466C55.4871 20 55.6276 19.8912 55.6276 19.7388V9.90207H58.4145C58.555 9.90207 58.6721 9.79325 58.6955 9.66268L58.9297 6.7247C58.9532 6.57236 58.8126 6.44178 58.6487 6.44178H55.6042V4.35256C55.6042 3.85201 56.0258 3.46028 56.5644 3.46028H58.719C58.8595 3.46028 59 3.35147 59 3.19913V0.261153C59 0.130576 58.8829 0 58.719 0H55.0656C52.9344 0 51.2014 1.61045 51.2014 3.59086V6.44178H49.281C49.1405 6.44178 49 6.5506 49 6.70294V9.66268C49 9.79325 49.1171 9.92383 49.281 9.92383H51.2014V10.0762Z" fill="#484848"/>
<path id="Icon_4" d="M2.25304 5.26394C2.27662 5.01655 2.18767 4.77206 2.01353 4.60554L0.239495 2.33865V2H5.74792L10.0056 11.9047L13.7488 2H19V2.33865L17.4832 3.88123C17.3524 3.98695 17.2876 4.16074 17.3146 4.33274V15.6673C17.2876 15.8393 17.3524 16.013 17.4832 16.1188L18.9645 17.6614V18H11.5135V17.6614L13.0481 16.0811C13.1989 15.9212 13.1989 15.8742 13.1989 15.6296V6.46794L8.93232 17.9624H8.35572L3.38841 6.46794V14.1717C3.34703 14.4956 3.44844 14.8216 3.66338 15.0559L5.65921 17.6238V17.9624H0V17.6238L1.99577 15.0559C2.20923 14.8212 2.3047 14.493 2.25304 14.1717V5.26394Z" fill="#484848"/>
</g>
</svg>
